<svg viewBox="0 0 400 450" xmlns="http://www.w3.org/2000/svg">
  <!-- Outer circle border -->
  <circle cx="200" cy="180" r="170" fill="none" stroke="#2d5016" stroke-width="8"/>
  
  <!-- Green background section -->
  <ellipse cx="200" cy="140" rx="165" ry="100" fill="#2d5016"/>
  
  <!-- Eye shape -->
  <ellipse cx="200" cy="140" rx="120" ry="65" fill="none" stroke="white" stroke-width="3"/>
  <path d="M 80 140 Q 200 100 320 140 Q 200 180 80 140" fill="none" stroke="white" stroke-width="3"/>
  
  <!-- Iris (dark circle) -->
  <circle cx="200" cy="140" r="35" fill="#2d2d2d"/>
  
  <!-- Pupil highlight -->
  <circle cx="210" cy="130" r="8" fill="white"/>
  
  <!-- Text around the circle (top) -->
  <path id="topCurve" d="M 70 180 A 130 130 0 0 1 330 180" fill="none"/>
  <text font-family="Arial, sans-serif" font-size="18" font-weight="bold" fill="#2d5016" letter-spacing="2">
    <textPath href="#topCurve" startOffset="50%" text-anchor="middle">
      SOCIOLOGY AND ANTHROPOLOGY STUDENTS
    </textPath>
  </text>
  
  <!-- Text around the circle (bottom) -->
  <path id="bottomCurve" d="M 330 180 A 130 130 0 0 1 70 180" fill="none"/>
  <text font-family="Arial, sans-serif" font-size="18" font-weight="bold" fill="#2d5016" letter-spacing="2">
    <textPath href="#bottomCurve" startOffset="50%" text-anchor="middle">
      ASSOCIATION • SOASA • SOASA
    </textPath>
  </text>
  
  <!-- Bottom banner -->
  <rect x="80" y="310" width="240" height="70" fill="#2d5016" rx="5"/>
  <text x="200" y="355" font-family="Arial, sans-serif" font-size="48" font-weight="bold" fill="white" text-anchor="middle">U.C.C</text>
  
  <!-- Bottom banner curves -->
  <path d="M 100 310 Q 100 295 120 290" stroke="#2d5016" stroke-width="3" fill="none"/>
  <path d="M 300 310 Q 300 295 280 290" stroke="#2d5016" stroke-width="3" fill="none"/>
</svg>
